<?xml version="1.0" encoding="UTF-8" standalone="no"?>
<!-- Created with Inkscape (http://www.inkscape.org/) -->

<svg
   width="63.106525mm"
   height="65.679291mm"
   viewBox="0 0 63.106525 65.679291"
   version="1.1"
   id="svg5"
   inkscape:version="1.1 (c68e22c387, 2021-05-23)"
   sodipodi:docname="heart-click.svg"
   inkscape:export-filename="C:\Users\elena\Desktop\heart-click.png"
   inkscape:export-xdpi="96"
   inkscape:export-ydpi="96"
   xmlns:inkscape="http://www.inkscape.org/namespaces/inkscape"
   xmlns:sodipodi="http://sodipodi.sourceforge.net/DTD/sodipodi-0.dtd"
   xmlns:xlink="http://www.w3.org/1999/xlink"
   xmlns="http://www.w3.org/2000/svg"
   xmlns:svg="http://www.w3.org/2000/svg">
  <sodipodi:namedview
     id="namedview7"
     pagecolor="#ffffff"
     bordercolor="#666666"
     borderopacity="1.0"
     inkscape:pageshadow="2"
     inkscape:pageopacity="0.0"
     inkscape:pagecheckerboard="0"
     inkscape:document-units="mm"
     showgrid="false"
     inkscape:snap-global="false"
     inkscape:zoom="1.6872981"
     inkscape:cx="119.4217"
     inkscape:cy="129.49698"
     inkscape:window-width="1482"
     inkscape:window-height="1033"
     inkscape:window-x="322"
     inkscape:window-y="0"
     inkscape:window-maximized="0"
     inkscape:current-layer="layer3"
     fit-margin-top="0"
     fit-margin-left="0"
     fit-margin-right="0"
     fit-margin-bottom="0" />
  <defs
     id="defs2">
    <linearGradient
       inkscape:collect="always"
       id="linearGradient6580">
      <stop
         style="stop-color:#ff2a2a;stop-opacity:1;"
         offset="0"
         id="stop6576" />
      <stop
         style="stop-color:#ff2a2a;stop-opacity:0;"
         offset="1"
         id="stop6578" />
    </linearGradient>
    <inkscape:path-effect
       effect="powerstroke"
       id="path-effect4465"
       is_visible="true"
       lpeversion="1"
       offset_points="18,1"
       not_jump="false"
       sort_points="true"
       interpolator_type="CubicBezierJohan"
       interpolator_beta="0.2"
       start_linecap_type="zerowidth"
       linejoin_type="extrp_arc"
       miter_limit="4"
       scale_width="1"
       end_linecap_type="zerowidth" />
    <inkscape:path-effect
       effect="bspline"
       id="path-effect4463"
       is_visible="true"
       lpeversion="1"
       weight="33.333333"
       steps="2"
       helper_size="0"
       apply_no_weight="true"
       apply_with_weight="true"
       only_selected="false" />
    <rect
       x="275.0979"
       y="487.58392"
       width="263.75876"
       height="201.63988"
       id="rect2087" />
    <inkscape:path-effect
       effect="fill_between_many"
       method="bsplinespiro"
       linkedpaths="#path4461,0,1"
       id="path-effect4467"
       is_visible="true"
       lpeversion="0"
       join="true"
       close="true"
       autoreverse="true"
       applied="false" />
    <radialGradient
       inkscape:collect="always"
       xlink:href="#linearGradient6580"
       id="radialGradient6582"
       cx="86.016769"
       cy="152.11964"
       fx="86.016769"
       fy="152.11964"
       r="26.542414"
       gradientTransform="matrix(4.9697002,4.8164888,-2.9399369,3.0330015,98.270298,-665.66721)"
       gradientUnits="userSpaceOnUse" />
    <rect
       x="275.0979"
       y="487.58392"
       width="263.75876"
       height="201.63988"
       id="rect8280" />
    <filter
       inkscape:label="Fat Oil"
       inkscape:menu="Bevels"
       inkscape:menu-tooltip="Fat oil with some adjustable turbulence"
       height="1.2162322"
       width="1.1737901"
       y="-0.1081161"
       x="-0.086895055"
       style="color-interpolation-filters:sRGB"
       id="filter11269">
      <feTurbulence
         numOctaves="3"
         seed="55"
         type="fractalNoise"
         baseFrequency="0.02"
         id="feTurbulence11247" />
      <feGaussianBlur
         stdDeviation="1"
         result="result91"
         id="feGaussianBlur11249" />
      <feDisplacementMap
         scale="15"
         yChannelSelector="G"
         xChannelSelector="R"
         in="SourceGraphic"
         in2="result91"
         id="feDisplacementMap11251" />
      <feGaussianBlur
         stdDeviation="1.5"
         result="result92"
         id="feGaussianBlur11253" />
      <feComposite
         result="fbSourceGraphic"
         k4="-0.3"
         k3="1"
         k2="1"
         operator="arithmetic"
         in2="result92"
         id="feComposite11255"
         k1="0" />
      <feGaussianBlur
         stdDeviation="3.5"
         in="fbSourceGraphic"
         result="result0"
         id="feGaussianBlur11257" />
      <feSpecularLighting
         in="result0"
         result="result1"
         lighting-color="#ffffff"
         surfaceScale="3"
         specularConstant="1"
         specularExponent="55"
         id="feSpecularLighting11261">
        <feDistantLight
           azimuth="235"
           elevation="65"
           id="feDistantLight11259" />
      </feSpecularLighting>
      <feComposite
         in2="fbSourceGraphic"
         in="result1"
         result="result2"
         operator="in"
         id="feComposite11263" />
      <feComposite
         in="fbSourceGraphic"
         result="result4"
         operator="arithmetic"
         k2="0.4"
         k3="1.7"
         in2="result2"
         id="feComposite11265"
         k1="0"
         k4="0" />
      <feBlend
         result="fbSourceGraphic"
         mode="normal"
         in2="result2"
         id="feBlend11267" />
    </filter>
    <filter
       inkscape:label="Wavy Tartan"
       inkscape:menu="Overlays"
       inkscape:menu-tooltip="Tartan pattern with a wavy displacement and bevel around the edges"
       x="-0.15869819"
       width="1.3173964"
       y="-0.18017843"
       height="1.3603569"
       style="color-interpolation-filters:sRGB"
       id="filter11977">
      <feTurbulence
         type="turbulence"
         result="result0"
         seed="20"
         numOctaves="1"
         baseFrequency="0 0.19"
         id="feTurbulence11961" />
      <feTurbulence
         result="result3"
         type="turbulence"
         seed="20"
         numOctaves="1"
         baseFrequency="0.19 0"
         id="feTurbulence11963" />
      <feComposite
         result="result1"
         operator="arithmetic"
         in2="result3"
         in="result0"
         k2="1"
         k3="1"
         k1="3"
         id="feComposite11965"
         k4="0" />
      <feComposite
         result="fbSourceGraphic"
         in="SourceGraphic"
         operator="in"
         in2="result1"
         id="feComposite11967" />
      <feGaussianBlur
         result="result8"
         stdDeviation="10"
         in="fbSourceGraphic"
         id="feGaussianBlur11969" />
      <feComposite
         in="result8"
         operator="xor"
         result="result6"
         in2="result8"
         id="feComposite11971" />
      <feDisplacementMap
         result="result4"
         scale="75"
         yChannelSelector="A"
         xChannelSelector="A"
         in2="result6"
         in="result1"
         id="feDisplacementMap11973" />
      <feComposite
         in="SourceGraphic"
         operator="in"
         result="result2"
         in2="result4"
         id="feComposite11975" />
    </filter>
  </defs>
  <g
     inkscape:groupmode="layer"
     id="layer3"
     inkscape:label="Layer 3"
     sodipodi:insensitive="true">
    <path
       d="m 39.789429,10.60845 c 4.54347,-3.34479 13.12791,-8.12862 18.87579,-6.84202 3.50733,2.01189 4.1124,4.68751 3.30304,8.05958 -2.47188,10.1977 -10.86049,24.16007 -17.05086,32.81249 -3.87637,5.41809 -5.61132,11.20402 -9.34924,16.70939 -1.630034,1.6677 -4.659458,5.66048 -6.969471,2.35293 -3.16082,-2.86895 -6.041229,-6.0099 -8.578466,-9.44141 C 14.756695,47.78451 9.029208,41.57977 5.001203,34.21427 2.677671,27.79617 -0.204045,24.08597 1.344789,17.542 3.74312,7.40882 7.905777,7.05897 11.976284,8.12676 c 3.990855,0.49943 16.574573,9.59493 20.263887,7.815 2.838058,-1.64994 4.802248,-3.31103 7.549258,-5.33331 z"
       id="path12185"
       style="display:inline;fill:#ffffff;fill-opacity:1;stroke:none"
       sodipodi:nodetypes="sssssccsssss" />
  </g>
  <g
     inkscape:label="Layer 1"
     inkscape:groupmode="layer"
     id="layer1"
     style="display:inline"
     transform="translate(-66.257814,-110.96434)"
     sodipodi:insensitive="true">
    <path
       style="fill:#ff3d3e;fill-rule:evenodd;stroke-width:0.25;paint-order:stroke fill markers"
       id="path75"
       d="m 87.821065,121.85259 c -3.324087,-1.36953 -6.712664,-2.5799 -10.141132,-3.65942 -1.514695,-0.27331 -3.286358,-1.2102 -4.876115,-0.70203 -2.17529,0.69535 -3.168949,2.99605 -4.171013,4.78718 -0.919837,2.4969 -2.001108,4.99269 -2.262627,7.68437 -0.381228,3.92376 0.239588,7.09835 1.378357,10.8669 0.578062,1.91298 1.242394,3.81207 2.116037,5.60941 0.978472,2.013 2.27964,3.85247 3.419459,5.77871 3.593071,5.28979 7.828127,10.08194 12.182695,14.74583 1.1924,1.2771 4.803897,5.06158 6.268712,6.42389 0.737277,0.68568 1.536745,1.30128 2.305119,1.95193 0.835525,0.44844 2.50586,1.6604 3.685722,1.20272 1.848887,-0.71721 4.290911,-4.058 5.167821,-5.27033 3.04036,-4.2033 4.99948,-7.77541 7.68073,-12.29694 4.3896,-7.59891 8.79067,-15.19289 12.81851,-22.99234 1.50918,-2.92235 4.23345,-8.17037 5.2382,-11.5191 0.41181,-1.37255 0.48853,-2.82405 0.7328,-4.23608 -0.24426,-1.60994 -0.24266,-4.44984 -1.94354,-5.58708 -2.13555,-1.42786 -5.82524,-0.61361 -7.87356,-0.0659 -4.19851,1.12274 -7.24098,2.80478 -11.15357,4.66952 -6.7166,3.70538 -3.51482,1.84953 -9.621239,5.54007 -0.121031,0.0731 -0.01757,0.24431 0.103452,0.17116 v 0 c 6.096167,-3.68459 2.900157,-1.83191 9.603847,-5.5307 3.9215,-1.86974 6.89724,-3.51885 11.09919,-4.65258 1.87497,-0.50588 5.64396,-1.35405 7.67203,-0.026 1.66834,1.09247 1.67489,3.88985 1.9163,5.44749 -0.24041,1.39845 -0.31365,2.83618 -0.72123,4.19535 -1.00271,3.34373 -3.72323,8.58359 -5.22924,11.49986 -4.02637,7.79674 -8.42596,15.38802 -12.81398,22.98428 -2.69242,4.54071 -4.61751,8.05478 -7.6639,12.27279 -0.73642,1.01965 -3.301809,4.51219 -4.993796,5.19738 -1.136674,0.4603 -2.780149,-0.73158 -3.57532,-1.15626 -0.764354,-0.64695 -1.559766,-1.25889 -2.293064,-1.94084 -1.46364,-1.36116 -5.071221,-5.14156 -6.262481,-6.41739 -4.345268,-4.65372 -8.571571,-9.43518 -12.158107,-14.71266 -1.134813,-1.91581 -2.430295,-3.74515 -3.404444,-5.74744 -0.870328,-1.78891 -1.531569,-3.67942 -2.108192,-5.58341 -1.128897,-3.72757 -1.753637,-6.89356 -1.37855,-10.77683 0.257818,-2.66919 1.331835,-5.15528 2.242489,-7.63233 0.952235,-1.7095 1.92927,-4.00439 4.009596,-4.6851 1.561825,-0.51106 3.314264,0.43162 4.802839,0.69322 3.421329,1.0771 6.802696,2.28517 10.119965,3.65142 l 11.136048,2.91975 c -4.133539,-1.64184 -7.369879,-2.06831 -11.054818,-3.10247 z"
       sodipodi:nodetypes="ccscssscsscsscsscscccsscsscsscsscsscssscscccc" />
    <g
       aria-label="Click
to open 
Modal"
       transform="matrix(0.23039283,-0.11090285,0,0.22986272,21.505426,51.373102)"
       id="text8278"
       style="font-size:40px;letter-spacing:0px;word-spacing:0px;white-space:pre;fill:#000000;filter:url(#filter11269)">
      <path
         style="color:#000000;-inkscape-font-specification:'Verdana, Bold';fill:#000000;-inkscape-stroke:none"
         d="m 291.93867,524.61182 q -3.23941,0 -5.99095,-0.95621 -2.73203,-0.95621 -4.703,-2.84911 -1.97096,-1.89291 -3.06377,-4.72251 -1.0733,-2.82961 -1.0733,-6.53736 0,-3.45407 1.03427,-6.26416 1.03427,-2.81008 3.00523,-4.82008 1.89291,-1.93193 4.68348,-2.98572 2.81009,-1.05378 6.12756,-1.05378 1.83436,0 3.29795,0.21466 1.4831,0.19514 2.73203,0.52689 1.30747,0.37078 2.36125,0.83912 1.0733,0.44884 1.87339,0.83913 v 7.04473 h -0.85864 q -0.5464,-0.46835 -1.38552,-1.11232 -0.81961,-0.64398 -1.8734,-1.26845 -1.07329,-0.62446 -2.32222,-1.05378 -1.24893,-0.42932 -2.67349,-0.42932 -1.58067,0 -3.00523,0.50738 -1.42456,0.48786 -2.63446,1.63922 -1.15136,1.11232 -1.87339,2.94669 -0.70252,1.83436 -0.70252,4.4493 0,2.73203 0.76106,4.5664 0.78058,1.83436 1.95145,2.88814 1.19039,1.0733 2.65397,1.54165 1.46359,0.44883 2.88815,0.44883 1.36601,0 2.693,-0.4098 1.3465,-0.40981 2.47834,-1.11233 0.95621,-0.56592 1.77582,-1.2099 0.81961,-0.64398 1.3465,-1.11233 h 0.78058 v 6.94717 q -1.09281,0.48786 -2.08805,0.91718 -0.99524,0.42932 -2.08805,0.74155 -1.42456,0.4098 -2.67349,0.62446 -1.24893,0.21466 -3.43455,0.21466 z"
         id="path10924" />
      <path
         style="color:#000000;-inkscape-font-specification:'Verdana, Bold';fill:#000000;-inkscape-stroke:none"
         d="m 314.36083,524.0459 h -7.02522 v -30.36456 h 7.02522 z"
         id="path10926" />
      <path
         style="color:#000000;-inkscape-font-specification:'Verdana, Bold';fill:#000000;-inkscape-stroke:none"
         d="m 328.02098,524.0459 h -7.02522 v -21.91478 h 7.02522 z m 0.19515,-25.0371 h -7.41551 v -5.32746 h 7.41551 z"
         id="path10928" />
      <path
         style="color:#000000;-inkscape-font-specification:'Verdana, Bold';fill:#000000;-inkscape-stroke:none"
         d="m 346.0719,524.63134 q -2.86864,0 -5.2494,-0.68301 -2.36126,-0.68301 -4.11756,-2.10757 -1.7368,-1.42455 -2.69301,-3.59066 -0.95621,-2.16611 -0.95621,-5.07377 0,-3.06378 1.01476,-5.28843 1.03427,-2.22466 2.86863,-3.68825 1.77582,-1.38552 4.09804,-2.0295 2.32223,-0.64398 4.82009,-0.64398 2.24416,0 4.13707,0.48786 1.89291,0.48786 3.53213,1.26844 v 5.99096 h -0.99524 q -0.40981,-0.35127 -0.99524,-0.81961 -0.56592,-0.46835 -1.40505,-0.91719 -0.80009,-0.42931 -1.7563,-0.70252 -0.95621,-0.29271 -2.22466,-0.29271 -2.81008,0 -4.33222,1.79533 -1.50261,1.77582 -1.50261,4.8396 0,3.16134 1.54164,4.80056 1.56116,1.63922 4.41028,1.63922 1.32699,0 2.38077,-0.29272 1.0733,-0.31223 1.77582,-0.72203 0.66349,-0.39029 1.17087,-0.81961 0.50738,-0.42932 0.9367,-0.83913 h 0.99524 v 5.99096 q -1.65874,0.78058 -3.47359,1.22941 -1.79533,0.46835 -3.98095,0.46835 z"
         id="path10930" />
      <path
         style="color:#000000;-inkscape-font-specification:'Verdana, Bold';fill:#000000;-inkscape-stroke:none"
         d="m 381.43217,524.0459 h -8.17657 l -6.14707,-9.54259 -1.91242,2.32223 v 7.22036 h -7.02522 v -30.36456 h 7.02522 v 18.12897 l 7.57163,-9.67919 h 8.09851 l -7.88385,9.44502 z"
         id="path10932" />
      <path
         style="color:#000000;-inkscape-font-specification:'Verdana, Bold';fill:#000000;-inkscape-stroke:none"
         d="m 292.42653,574.92205 q -1.13184,0.29271 -2.40028,0.44883 -1.26844,0.17563 -3.10281,0.17563 -4.09804,0 -6.10803,-1.65873 -1.99048,-1.65873 -1.99048,-5.67872 v -10.24511 h -2.88815 v -4.76154 h 2.88815 v -6.26416 h 7.02522 v 6.26416 h 6.57638 v 4.76154 h -6.57638 v 7.76677 q 0,1.15135 0.0195,2.00999 0.0195,0.85864 0.31223,1.54165 0.27321,0.683 0.95621,1.09281 0.70253,0.39029 2.02951,0.39029 0.54641,0 1.42456,-0.23418 0.89767,-0.23417 1.24893,-0.42932 h 0.58543 z"
         id="path10934" />
      <path
         style="color:#000000;-inkscape-font-specification:'Verdana, Bold';fill:#000000;-inkscape-stroke:none"
         d="m 319.0248,564.16956 q 0,5.40551 -3.16135,8.52783 -3.14184,3.10281 -8.84007,3.10281 -5.69823,0 -8.85958,-3.10281 -3.14184,-3.12232 -3.14184,-8.52783 0,-5.44455 3.16135,-8.54736 3.18086,-3.1028 8.84007,-3.1028 5.73726,0 8.85958,3.12232 3.14184,3.12232 3.14184,8.52784 z m -8.64493,5.32746 q 0.68301,-0.83913 1.01476,-2.01 0.35126,-1.19038 0.35126,-3.27843 0,-1.93194 -0.35126,-3.23941 -0.35126,-1.30747 -0.97573,-2.08805 -0.62446,-0.8001 -1.50261,-1.13184 -0.87816,-0.33175 -1.89291,-0.33175 -1.01475,0 -1.81485,0.2732 -0.78058,0.27321 -1.50262,1.09281 -0.64397,0.76107 -1.03426,2.08806 -0.37078,1.32698 -0.37078,3.33698 0,1.79533 0.33175,3.12232 0.33174,1.30747 0.97572,2.10756 0.62447,0.76107 1.4831,1.11233 0.87816,0.35126 1.99048,0.35126 0.95621,0 1.81485,-0.31223 0.87815,-0.33175 1.4831,-1.09281 z"
         id="path10936" />
      <path
         style="color:#000000;-inkscape-font-specification:'Verdana, Bold';fill:#000000;-inkscape-stroke:none"
         d="m 360.12234,564.16956 q 0,5.40551 -3.16135,8.52783 -3.14184,3.10281 -8.84007,3.10281 -5.69823,0 -8.85958,-3.10281 -3.14184,-3.12232 -3.14184,-8.52783 0,-5.44455 3.16135,-8.54736 3.18086,-3.1028 8.84007,-3.1028 5.73726,0 8.85958,3.12232 3.14184,3.12232 3.14184,8.52784 z m -8.64493,5.32746 q 0.68301,-0.83913 1.01476,-2.01 0.35126,-1.19038 0.35126,-3.27843 0,-1.93194 -0.35126,-3.23941 -0.35126,-1.30747 -0.97573,-2.08805 -0.62446,-0.8001 -1.50261,-1.13184 -0.87816,-0.33175 -1.89291,-0.33175 -1.01475,0 -1.81485,0.2732 -0.78058,0.27321 -1.50262,1.09281 -0.64397,0.76107 -1.03426,2.08806 -0.37078,1.32698 -0.37078,3.33698 0,1.79533 0.33175,3.12232 0.33174,1.30747 0.97572,2.10756 0.62447,0.76107 1.4831,1.11233 0.87816,0.35126 1.99048,0.35126 0.95621,0 1.81485,-0.31223 0.87815,-0.33175 1.4831,-1.09281 z"
         id="path10938" />
      <path
         style="color:#000000;-inkscape-font-specification:'Verdana, Bold';fill:#000000;-inkscape-stroke:none"
         d="m 388.02808,563.85732 q 0,2.71252 -0.83913,4.93717 -0.81961,2.22466 -2.16611,3.66873 -1.40504,1.52213 -3.18086,2.30271 -1.77582,0.78058 -3.80533,0.78058 -1.87339,0 -3.18086,-0.4098 -1.30747,-0.39029 -2.67349,-1.11233 v 9.13279 h -7.02522 v -29.95476 h 7.02522 v 2.28319 q 1.6197,-1.28795 3.29795,-2.08805 1.69776,-0.80009 3.9029,-0.80009 4.09805,0 6.36173,3.00523 2.2832,3.00523 2.2832,8.25463 z m -7.23988,0.13661 q 0,-3.20038 -1.09282,-4.64446 -1.09281,-1.44407 -3.45406,-1.44407 -0.99524,0 -2.04903,0.31223 -1.05378,0.29272 -2.00999,0.85864 v 11.02569 q 0.70252,0.27321 1.50262,0.35127 0.80009,0.0781 1.58067,0.0781 2.79058,0 4.15659,-1.6197 1.36602,-1.63922 1.36602,-4.91765 z"
         id="path10940" />
      <path
         style="color:#000000;-inkscape-font-specification:'Verdana, Bold';fill:#000000;-inkscape-stroke:none"
         d="m 414.68488,565.45751 h -16.07995 q 0.15612,2.57592 1.95145,3.94193 1.81485,1.36602 5.32746,1.36602 2.22465,0 4.31271,-0.8001 2.08805,-0.80009 3.29795,-1.71727 h 0.78058 v 5.63969 q -2.38077,0.95621 -4.48834,1.38553 -2.10756,0.42932 -4.66396,0.42932 -6.59591,0 -10.10852,-2.96621 -3.51261,-2.9662 -3.51261,-8.44978 0,-5.42503 3.31747,-8.58638 3.33698,-3.18086 9.13279,-3.18086 5.34697,0 8.03997,2.71251 2.693,2.69301 2.693,7.76678 z m -6.98619,-4.11756 q -0.0585,-2.20513 -1.09281,-3.31746 -1.03427,-1.11233 -3.21989,-1.11233 -2.02951,0 -3.33698,1.05379 -1.30748,1.05378 -1.46359,3.376 z"
         id="path10942" />
      <path
         style="color:#000000;-inkscape-font-specification:'Verdana, Bold';fill:#000000;-inkscape-stroke:none"
         d="m 441.65392,575.11719 h -7.06425 v -10.86958 q 0,-1.32698 -0.1366,-2.63445 -0.1366,-1.32699 -0.46835,-1.95145 -0.39029,-0.72204 -1.15136,-1.05379 -0.74155,-0.33174 -2.08805,-0.33174 -0.95621,0 -1.95145,0.31223 -0.97572,0.31223 -2.12708,0.99524 v 15.53354 h -7.02522 v -21.91478 h 7.02522 v 2.41979 q 1.87339,-1.46358 3.59067,-2.24416 1.73679,-0.78058 3.84436,-0.78058 3.55164,0 5.54212,2.06853 2.00999,2.06854 2.00999,6.1861 z"
         id="path10944" />
      <path
         style="color:#000000;-inkscape-font-specification:'Verdana, Bold';fill:#000000;-inkscape-stroke:none"
         d="m 309.26755,626.18848 h -7.45454 v -19.45596 l -5.386,12.62589 h -5.17135 l -5.386,-12.62589 v 19.45596 h -7.06425 v -29.05709 h 8.70347 l 6.53736,14.57733 6.51784,-14.57733 h 8.70347 z"
         id="path10946" />
      <path
         style="color:#000000;-inkscape-font-specification:'Verdana, Bold';fill:#000000;-inkscape-stroke:none"
         d="m 338.69542,615.24085 q 0,5.40551 -3.16135,8.52783 -3.14184,3.10281 -8.84007,3.10281 -5.69824,0 -8.85959,-3.10281 -3.14183,-3.12232 -3.14183,-8.52783 0,-5.44455 3.16135,-8.54736 3.18086,-3.1028 8.84007,-3.1028 5.73726,0 8.85958,3.12232 3.14184,3.12232 3.14184,8.52784 z m -8.64493,5.32745 q 0.68301,-0.83912 1.01476,-2.00999 0.35126,-1.19038 0.35126,-3.27844 0,-1.93193 -0.35126,-3.2394 -0.35126,-1.30747 -0.97573,-2.08805 -0.62446,-0.8001 -1.50262,-1.13185 -0.87815,-0.33174 -1.8929,-0.33174 -1.01476,0 -1.81485,0.2732 -0.78058,0.2732 -1.50262,1.09281 -0.64398,0.76107 -1.03427,2.08805 -0.37077,1.32699 -0.37077,3.33698 0,1.79534 0.33175,3.12232 0.33174,1.30748 0.97572,2.10757 0.62446,0.76107 1.4831,1.11233 0.87815,0.35126 1.99048,0.35126 0.95621,0 1.81485,-0.31223 0.87815,-0.33175 1.4831,-1.09282 z"
         id="path10948" />
      <path
         style="color:#000000;-inkscape-font-specification:'Verdana, Bold';fill:#000000;-inkscape-stroke:none"
         d="m 365.03999,626.18848 h -7.02522 v -2.2832 q -1.81485,1.48311 -3.39552,2.18563 -1.58068,0.70252 -3.64922,0.70252 -4.00047,0 -6.40075,-3.08329 -2.40029,-3.08329 -2.40029,-8.31318 0,-2.79057 0.8001,-4.93717 0.81961,-2.16611 2.22465,-3.70775 1.32699,-1.46359 3.21989,-2.26368 1.89291,-0.81961 3.78582,-0.81961 1.97096,0 3.21989,0.42932 1.26844,0.4098 2.59543,1.05378 v -9.32793 h 7.02522 z m -7.02522,-6.04949 V 609.3865 q -0.74155,-0.31224 -1.56116,-0.44884 -0.81961,-0.1366 -1.50262,-0.1366 -2.77106,0 -4.15659,1.73679 -1.38553,1.71728 -1.38553,4.78105 0,3.2199 1.11233,4.68348 1.11233,1.44408 3.57115,1.44408 0.95622,0 2.02951,-0.35126 1.0733,-0.37078 1.89291,-0.95621 z"
         id="path10950" />
      <path
         style="color:#000000;-inkscape-font-specification:'Verdana, Bold';fill:#000000;-inkscape-stroke:none"
         d="m 384.94479,620.47073 v -4.56639 q -1.42456,0.11709 -3.0833,0.33175 -1.65873,0.19514 -2.51737,0.46834 -1.05378,0.33175 -1.6197,0.97573 -0.54641,0.62446 -0.54641,1.65873 0,0.68301 0.11709,1.11233 0.11709,0.42932 0.58544,0.81961 0.44883,0.39029 1.07329,0.58543 0.62447,0.17563 1.95145,0.17563 1.05379,0 2.12708,-0.42932 1.09282,-0.42932 1.91243,-1.13184 z m 0,3.39553 q -0.56592,0.42931 -1.40505,1.03426 -0.83912,0.60495 -1.58067,0.95621 -1.03427,0.46835 -2.1466,0.68301 -1.11232,0.23418 -2.43931,0.23418 -3.12232,0 -5.22989,-1.93194 -2.10756,-1.93194 -2.10756,-4.93717 0,-2.40028 1.07329,-3.92241 1.0733,-1.52213 3.04427,-2.40029 1.95145,-0.87815 4.83959,-1.24893 2.88815,-0.37077 5.99095,-0.5464 v -0.11709 q 0,-1.81485 -1.4831,-2.49785 -1.4831,-0.70253 -4.37125,-0.70253 -1.73679,0 -3.70775,0.62447 -1.97097,0.60495 -2.8296,0.93669 h -0.64398 v -5.28843 q 1.11232,-0.29271 3.61018,-0.683 2.51737,-0.40981 5.03474,-0.40981 5.99095,0 8.64493,1.85388 2.67348,1.83436 2.67348,5.77629 v 14.90908 h -6.96667 z"
         id="path10952" />
      <path
         style="color:#000000;-inkscape-font-specification:'Verdana, Bold';fill:#000000;-inkscape-stroke:none"
         d="m 405.39598,626.18848 h -7.02522 v -30.36456 h 7.02522 z"
         id="path10954" />
    </g>
  </g>
  <g
     inkscape:groupmode="layer"
     id="layer2"
     inkscape:label="Layer 2"
     style="display:inline"
     transform="translate(-66.257814,-110.96434)"
     sodipodi:insensitive="true">
    <path
       d="m 105.84701,121.72591 c 4.54347,-3.34479 13.12791,-8.12862 18.87579,-6.84202 3.50733,2.01189 4.1124,4.68751 3.30304,8.05958 -2.47188,10.1977 -10.86049,24.16007 -17.05086,32.81249 -3.87637,5.41809 -5.61132,11.20402 -9.34924,16.70939 -1.630034,1.6677 -4.659458,5.66048 -6.969471,2.35293 -3.16082,-2.86895 -6.041229,-6.0099 -8.578466,-9.44141 -5.263527,-6.4749 -10.991014,-12.67964 -15.019019,-20.04514 -2.323532,-6.4181 -5.205248,-10.1283 -3.656414,-16.67227 2.398331,-10.13318 6.560988,-10.48303 10.631495,-9.41524 3.990855,0.49943 16.574573,9.59493 20.263887,7.815 2.838058,-1.64994 4.802248,-3.31103 7.549258,-5.33331 z"
       id="path4469"
       style="fill:url(#radialGradient6582);fill-opacity:1;stroke:none"
       sodipodi:nodetypes="sssssccsssss" />
  </g>
</svg>
